<svg version="1.0" xmlns="http://www.w3.org/2000/svg"
 width="304.000000pt" height="637.000000pt" viewBox="0 0 304.000000 637.000000"
 preserveAspectRatio="xMidYMid meet">

<g transform="translate(0.000000,637.000000) scale(0.100000,-0.100000)"
fill="#000000" stroke="none">
<path d="M1445 6291 c-125 -32 -199 -147 -194 -298 1 -37 -2 -68 -8 -71 -6 -4
-14 -30 -18 -58 -8 -61 11 -114 49 -139 19 -13 26 -26 26 -49 0 -17 5 -38 11
-46 8 -11 9 -7 5 18 -4 24 -2 32 7 30 6 -3 13 -19 15 -36 2 -19 11 -36 22 -42
10 -5 20 -20 22 -32 3 -20 7 -17 28 21 l25 45 83 -1 c45 -1 86 -2 91 -2 5 -1
22 -27 37 -58 l28 -58 4 35 c2 19 9 41 14 48 6 7 14 29 17 49 9 54 31 55 24 1
-7 -56 7 -43 18 18 6 30 17 53 33 65 33 26 50 81 40 127 -4 20 -6 45 -5 55 1
9 -4 17 -11 17 -10 0 -13 22 -14 83 -1 59 -7 97 -23 137 -28 69 -43 86 -106
118 -53 27 -162 39 -220 23z m122 -12 c21 -8 24 -12 13 -19 -9 -6 -2 -12 28
-20 36 -9 46 -18 67 -60 26 -52 31 -70 16 -70 -5 0 -12 16 -15 35 -4 19 -12
37 -17 41 -7 4 -9 -1 -6 -12 13 -45 18 -96 9 -90 -5 3 -15 -26 -21 -65 -11
-60 -15 -69 -31 -64 -13 4 -20 0 -25 -14 -7 -24 -34 -35 -41 -16 -3 7 -12 11
-19 9 -7 -3 -23 0 -34 6 -17 9 -25 8 -37 -5 -14 -14 -34 -20 -34 -11 0 2 -13
41 -30 87 -36 100 -36 99 -9 99 20 0 21 1 5 25 -21 32 -20 47 5 79 24 31 39
33 39 7 0 -14 5 -18 20 -14 11 3 20 12 20 20 0 12 10 14 41 11 35 -3 38 -2 23
9 -16 12 -16 13 6 13 30 0 15 16 -20 23 -22 4 -22 4 -3 6 12 0 34 -4 50 -10z
m139 -53 c1 -1 -4 -6 -11 -13 -11 -10 -19 -5 -41 25 l-28 36 39 -24 c22 -13
41 -24 41 -24z m-363 -108 c-4 -35 -7 -75 -6 -90 0 -15 -4 -25 -8 -22 -5 3 -9
22 -10 42 -1 36 -1 36 -10 10 -7 -19 -5 -48 10 -109 11 -46 18 -85 16 -87 -3
-3 -7 4 -11 14 -19 60 -24 54 -18 -21 7 -92 10 -101 31 -84 12 11 13 8 7 -17
-8 -36 -22 -52 -28 -33 -2 8 -15 55 -27 104 -39 154 -23 331 32 346 13 4 25 7
27 8 1 1 -1 -27 -5 -61z m426 -9 c6 -18 11 -64 11 -103 0 -69 -22 -202 -36
-214 -3 -4 -4 32 -2 81 2 48 0 87 -4 87 -5 0 -7 21 -3 48 l6 47 -16 -30 -15
-30 6 30 c3 17 13 38 21 48 15 15 15 17 0 17 -13 0 -17 9 -17 35 0 32 2 35 19
26 10 -6 24 -25 30 -42z m-412 -51 c-3 -8 -6 -5 -6 6 -1 11 2 17 5 13 3 -3 4
-12 1 -19z m-100 -210 c-3 -7 -5 -2 -5 12 0 14 2 19 5 13 2 -7 2 -19 0 -25z
m543 18 c0 -3 -4 -8 -10 -11 -5 -3 -10 -1 -10 4 0 6 5 11 10 11 6 0 10 -2 10
-4z m-70 -137 c0 -5 -4 -9 -10 -9 -5 0 -10 7 -10 16 0 8 5 12 10 9 6 -3 10
-10 10 -16z m-150 -19 c0 -10 -9 -24 -20 -30 -19 -10 -19 -10 -2 20 20 35 22
36 22 10z"/>
<path d="M1582 6110 c0 -14 2 -19 5 -12 2 6 2 18 0 25 -3 6 -5 1 -5 -13z"/>
<path d="M1410 6036 c0 -30 6 -51 21 -67 18 -21 20 -22 14 -4 -3 11 -11 41
-16 67 -6 27 -13 48 -15 48 -2 0 -4 -20 -4 -44z"/>
<path d="M1595 6010 c-4 -12 -5 -24 -2 -27 3 -2 8 5 12 17 4 12 5 24 2 27 -3
2 -8 -5 -12 -17z"/>
<path d="M1312 6110 c0 -14 2 -19 5 -12 2 6 2 18 0 25 -3 6 -5 1 -5 -13z"/>
<path d="M1310 5481 c0 -11 -17 -33 -37 -50 -45 -37 -288 -162 -363 -186 -98
-32 -176 -81 -201 -126 -8 -17 -6 -16 23 4 19 12 44 32 58 44 36 34 37 19 1
-25 -17 -22 -47 -77 -66 -123 -20 -46 -40 -88 -44 -94 -5 -5 -11 -31 -15 -56
-5 -35 -3 -49 9 -59 19 -16 11 -51 -26 -110 -15 -25 -42 -79 -59 -120 -31 -72
-40 -105 -75 -272 -16 -73 -18 -78 -43 -78 -29 -1 -64 -46 -96 -124 -22 -54
-21 -71 4 -46 23 23 43 18 33 -8 -4 -9 -22 -48 -41 -87 -66 -136 -177 -483
-167 -525 4 -17 3 -21 -4 -11 -13 20 -36 -59 -62 -209 -22 -130 -25 -141 -37
-125 -39 54 -47 -115 -10 -212 24 -65 63 -129 83 -137 18 -6 47 28 44 51 -2
10 0 27 4 39 5 13 0 38 -13 65 -26 58 -26 130 2 191 12 26 25 48 29 48 5 0 9
-25 11 -56 3 -64 23 -88 56 -68 14 9 18 31 23 111 4 55 9 105 13 111 4 6 2 41
-5 76 -11 64 -10 68 21 133 17 38 57 104 89 148 162 225 226 342 266 486 22
83 189 447 205 449 3 0 13 -26 22 -57 8 -32 32 -110 52 -173 21 -63 41 -149
45 -190 5 -41 9 -63 10 -47 1 34 18 35 33 2 9 -21 8 -40 -6 -93 -9 -37 -16
-90 -14 -117 3 -46 5 -49 36 -57 20 -5 36 -18 41 -31 9 -21 9 -21 16 -2 3 11
13 34 21 51 12 23 13 36 4 59 -10 25 -8 32 14 54 24 23 28 24 83 14 68 -13 77
-8 103 52 36 84 66 78 96 -20 20 -64 34 -56 34 20 0 28 3 68 7 90 5 31 8 35
14 20 4 -11 8 -46 8 -77 1 -90 10 -97 37 -31 21 51 29 81 33 132 1 8 9 3 22
-13 19 -24 24 -44 28 -118 0 -16 10 -37 21 -48 18 -18 28 -19 88 -14 81 8 97
-4 94 -69 -2 -34 3 -49 25 -74 28 -33 29 -33 46 -13 9 11 26 20 37 20 18 0 20
6 20 53 -1 28 -5 72 -11 97 -20 93 -22 120 -9 135 18 22 30 9 31 -33 1 -20 5
1 9 48 5 61 22 135 61 257 30 95 56 173 59 172 3 0 44 -80 92 -177 56 -114 95
-206 108 -260 36 -144 77 -222 242 -458 54 -78 110 -167 124 -199 24 -51 25
-63 17 -114 -5 -31 -5 -74 -1 -96 4 -22 7 -74 7 -116 1 -83 12 -103 52 -97 25
3 44 54 36 95 -7 39 13 25 33 -23 26 -59 25 -123 -1 -184 -16 -38 -18 -52 -9
-69 6 -12 8 -26 5 -32 -10 -15 23 -59 39 -53 20 8 62 75 86 136 14 37 20 77
20 134 0 91 -10 105 -50 74 -20 -15 -22 -21 -11 -33 10 -13 9 -24 -3 -62 -17
-47 -46 -99 -53 -92 -2 3 3 24 11 48 20 56 20 120 1 145 -8 10 -15 27 -15 37
0 9 -4 17 -10 17 -5 0 -7 7 -4 15 4 8 1 15 -5 15 -6 0 -8 7 -4 16 4 10 -1 17
-15 20 -25 7 -47 79 -38 126 10 50 10 51 2 77 -6 17 -5 22 5 19 8 -3 15 -10
15 -16 1 -7 3 -14 4 -17 4 -8 7 -24 9 -40 0 -8 10 -15 22 -15 13 0 23 -10 30
-30 18 -49 27 -34 14 23 -7 29 -17 51 -24 49 -6 -1 -19 15 -29 35 -9 21 -20
40 -24 41 -11 5 -10 22 0 22 5 0 15 -11 22 -25 50 -94 -7 116 -101 370 -63
173 -77 205 -89 205 -6 0 -10 9 -10 20 0 11 3 20 8 20 4 0 13 -9 20 -20 13
-21 32 -27 32 -9 0 5 -18 48 -40 94 -34 72 -44 84 -70 90 -37 8 -43 22 -59
128 -12 88 -59 217 -120 331 -45 86 -49 101 -25 114 14 8 15 16 5 61 -13 61
-96 240 -119 258 -29 21 -31 15 -11 -37 19 -50 26 -145 11 -154 -4 -2 -30 6
-57 20 -57 27 -97 31 -115 9 -7 -8 -18 -15 -24 -15 -6 0 -28 -16 -48 -35 -42
-39 -51 -63 -18 -45 18 10 19 8 13 -22 -10 -56 -29 -83 -76 -106 -58 -29 -68
-28 -105 8 -44 41 -68 38 -119 -15 -23 -25 -51 -45 -61 -45 -21 0 -38 41 -47
115 -8 69 -14 85 -31 85 -23 0 -34 -44 -35 -133 -1 -110 -14 -142 -22 -58 -4
35 -7 87 -7 114 0 44 -14 142 -27 186 -6 21 -15 6 -18 -31 -2 -18 -8 -51 -15
-73 -6 -22 -17 -69 -23 -105 -20 -107 -35 -114 -104 -45 -24 25 -47 45 -52 45
-4 0 -24 -16 -44 -36 -33 -33 -40 -36 -74 -31 -47 8 -83 34 -105 77 -9 18 -22
38 -27 43 -6 6 -11 25 -11 42 0 25 -9 39 -39 63 -22 18 -52 32 -66 32 -35 0
-82 -25 -96 -52 l-11 -21 -17 22 c-43 57 16 207 99 248 25 13 61 38 81 57 22
21 51 37 75 42 49 8 69 18 119 59 22 18 63 42 92 54 64 28 94 59 86 89 -7 27
-23 29 -23 3z m-452 -613 c21 -18 14 -104 -17 -192 -37 -105 -47 -126 -77
-151 -17 -14 -26 -36 -30 -70 -5 -35 -19 -67 -46 -105 -21 -30 -46 -79 -55
-110 -37 -126 -63 -162 -104 -140 -25 14 -24 50 1 100 11 22 20 50 20 62 1 34
67 218 87 240 9 10 30 22 47 26 56 15 42 77 -15 65 -35 -7 -35 -5 -5 83 22 65
71 157 105 197 15 19 62 16 89 -5z m1415 0 c30 -23 108 -160 119 -211 11 -53
6 -64 -32 -69 -21 -2 -25 -8 -25 -37 0 -31 3 -34 29 -36 53 -2 70 -35 152
-300 22 -72 16 -109 -18 -113 -33 -4 -53 23 -73 102 -9 32 -34 89 -57 128 -28
47 -43 85 -46 117 -4 42 -7 48 -23 44 -16 -4 -25 7 -48 58 -33 75 -66 185 -75
251 -6 41 -4 48 16 62 27 19 58 21 81 4z m-963 -212 c0 -50 -24 -76 -70 -76
-57 0 -58 16 -5 70 62 63 75 64 75 6z m482 8 c64 -45 62 -93 -5 -80 -37 7 -60
37 -53 71 3 11 5 23 5 28 2 12 13 8 53 -19z m-76 -159 c9 -23 -5 -65 -21 -65
-20 0 -35 32 -28 58 6 25 41 30 49 7z m-347 -9 c16 -19 -3 -58 -24 -50 -16 6
-19 22 -9 48 8 20 18 20 33 2z m-879 -368 c-8 -23 -21 -43 -27 -46 -17 -5 -16
14 4 66 11 30 19 40 27 32 7 -7 6 -23 -4 -52z m2089 16 c22 -36 28 -74 12 -74
-10 0 -41 72 -41 95 0 23 6 18 29 -21z m-2164 -211 c-3 -18 -10 -31 -16 -28
-13 8 -11 48 3 82 11 28 12 28 16 4 2 -13 1 -39 -3 -58z m2245 10 c0 -13 -4
-23 -9 -23 -10 0 -21 35 -21 65 1 20 1 20 15 1 8 -11 15 -30 15 -43z m-29
-229 c12 -14 11 -16 -5 -13 -11 2 -21 10 -24 17 -5 17 13 15 29 -4z m49 -54
c0 -5 -4 -10 -10 -10 -5 0 -10 5 -10 10 0 6 5 10 10 10 6 0 10 -4 10 -10z m30
-51 c0 -5 -7 -9 -15 -9 -15 0 -20 12 -9 23 8 8 24 -1 24 -14z m53 -3 c6 -16
-2 -28 -14 -20 -12 7 -11 34 0 34 5 0 11 -6 14 -14z m-25 -45 c3 -8 -1 -12 -9
-9 -7 2 -15 10 -17 17 -3 8 1 12 9 9 7 -2 15 -10 17 -17z m59 -26 c9 -25 -4
-29 -17 -6 -7 15 -7 21 0 21 6 0 13 -7 17 -15z m-37 -25 c0 -5 -4 -10 -10 -10
-5 0 -10 5 -10 10 0 6 5 10 10 10 6 0 10 -4 10 -10z m30 -50 c0 -5 -4 -10 -10
-10 -5 0 -10 5 -10 10 0 6 5 10 10 10 6 0 10 -4 10 -10z m-2530 -115 c17 -20
5 -61 -32 -113 -17 -24 -41 -72 -53 -107 -22 -61 -23 -67 -9 -132 8 -37 16
-74 19 -80 2 -7 1 -13 -4 -13 -5 0 -18 22 -30 49 -28 67 -28 162 0 228 12 26
23 71 26 98 7 73 50 110 83 70z"/>
<path d="M1716 5484 c-11 -29 21 -61 98 -97 41 -20 77 -41 81 -47 12 -19 84
-60 105 -60 24 0 62 -18 116 -55 21 -14 49 -24 64 -23 35 3 89 -32 146 -95 26
-29 41 -41 35 -29 -38 72 -129 138 -236 172 -52 17 -265 123 -332 166 -34 22
-53 41 -53 53 0 26 -16 35 -24 15z"/>
<path d="M685 5079 c-4 -6 -5 -12 -2 -15 2 -3 7 2 10 11 7 17 1 20 -8 4z"/>
<path d="M610 4703 c-23 -58 -23 -61 0 -20 12 21 20 43 18 48 -2 6 -10 -7 -18
-28z"/>
<path d="M2420 4722 c0 -14 28 -72 35 -72 5 0 -4 26 -22 60 -7 14 -13 19 -13
12z"/>
<path d="M1032 3990 c0 -14 2 -19 5 -12 2 6 2 18 0 25 -3 6 -5 1 -5 -13z"/>
<path d="M2011 3974 c0 -11 3 -14 6 -6 3 7 2 16 -1 19 -3 4 -6 -2 -5 -13z"/>
<path d="M1022 3920 c0 -19 2 -27 5 -17 2 9 2 25 0 35 -3 9 -5 1 -5 -18z"/>
<path d="M2022 3920 c0 -14 2 -19 5 -12 2 6 2 18 0 25 -3 6 -5 1 -5 -13z"/>
<path d="M1015 3787 c-1 -46 -10 -124 -22 -177 -22 -97 -40 -229 -30 -220 3 3
11 43 17 90 6 47 22 126 34 175 19 73 22 101 15 148 -4 33 -9 60 -11 62 -2 2
-3 -33 -3 -78z"/>
<path d="M2019 3780 c-3 -25 1 -70 9 -100 8 -30 25 -118 38 -195 41 -242 56
-320 65 -335 14 -25 11 12 -10 108 -11 48 -27 137 -36 197 -9 61 -24 139 -32
175 -9 36 -19 94 -22 130 l-7 65 -5 -45z"/>
<path d="M1912 3680 c-19 -30 -32 -110 -42 -245 -6 -85 -14 -134 -29 -169 -21
-48 -22 -48 -59 -41 -96 17 -109 24 -147 79 -30 43 -73 159 -75 199 0 4 -4 7
-10 7 -5 0 -10 -19 -11 -42 -1 -24 -4 -54 -8 -68 -7 -24 -7 -24 -14 9 -4 18
-7 44 -7 57 0 13 -5 24 -10 24 -12 0 -24 -26 -40 -91 -25 -96 -96 -160 -197
-176 -44 -6 -61 24 -73 128 -5 46 -14 125 -20 175 -10 92 -32 164 -50 164 -28
0 -52 -135 -31 -174 29 -54 -10 -285 -59 -346 -57 -71 -84 -117 -96 -164 -9
-32 -16 -144 -20 -308 -4 -142 -10 -258 -14 -258 -6 0 -24 177 -33 335 -2 28
-4 2 -5 -56 -3 -156 15 -348 45 -479 14 -63 29 -140 34 -170 6 -40 7 -23 4 67
-4 154 10 281 29 262 3 -2 0 -125 -5 -273 -5 -148 -7 -272 -4 -274 2 -3 12 1
20 8 14 12 16 10 11 -11 -18 -78 -24 -114 -21 -118 10 -9 28 58 30 110 4 79
14 118 34 129 17 8 46 59 70 123 14 36 37 34 50 -5 10 -27 21 -185 25 -348 3
-102 -18 -399 -29 -426 -14 -35 -48 -49 -66 -28 -14 17 -41 18 -57 2 -9 -9
-17 -7 -33 8 -43 38 -51 76 -43 217 5 90 4 128 -4 124 -11 -8 -23 -54 -48
-199 -10 -53 -21 -95 -26 -92 -4 3 -9 35 -9 72 l-2 67 -9 -66 c-11 -73 -1
-189 52 -594 19 -144 30 -269 28 -312 -2 -39 0 -66 4 -60 9 15 10 -28 1 -61
-4 -18 -8 -20 -14 -10 -6 9 -9 6 -9 -11 0 -13 -10 -39 -21 -58 -12 -19 -19
-36 -16 -39 3 -3 8 4 12 15 10 31 23 25 27 -12 3 -28 7 -32 33 -33 17 -1 33
-2 37 -3 10 -2 -12 -63 -30 -84 -14 -16 -17 -16 -38 -2 -18 11 -38 14 -78 9
-44 -5 -58 -3 -72 10 -13 13 -19 14 -25 5 -19 -32 45 -79 110 -79 23 0 60 -10
83 -21 28 -14 63 -22 104 -23 53 -1 66 3 88 23 24 22 25 28 26 150 0 69 0 158
-2 196 -9 213 14 391 82 640 40 144 46 233 30 425 l-13 159 26 98 c36 134 53
225 72 394 15 135 27 198 89 474 23 101 43 255 49 379 2 56 24 79 51 57 12
-10 16 -33 16 -100 0 -95 19 -230 50 -361 45 -186 70 -318 85 -444 20 -166 40
-275 72 -400 26 -99 26 -101 13 -247 -16 -181 -9 -297 24 -409 14 -47 40 -159
58 -250 31 -161 32 -172 32 -452 1 -285 1 -288 24 -310 19 -20 32 -23 86 -21
42 1 78 9 105 22 22 12 59 21 83 21 30 0 55 8 81 25 56 39 48 63 -38 108 l-50
27 43 -38 c58 -52 55 -61 -20 -60 -35 1 -75 -2 -90 -6 -25 -7 -29 -5 -45 28
-15 32 -15 38 -3 46 8 5 23 7 34 4 22 -7 35 11 37 51 l1 30 10 -27 c8 -24 28
-39 28 -23 0 7 -52 88 -61 95 -18 14 -7 251 21 466 56 424 65 523 53 594 l-10
65 -2 -79 c-2 -124 -18 -85 -56 135 -8 47 -20 99 -27 116 -11 26 -13 7 -10
-127 4 -163 1 -178 -43 -234 -13 -17 -18 -18 -42 -7 -23 10 -29 10 -38 -2 -10
-14 -15 -14 -42 0 -44 21 -51 63 -58 333 -6 253 4 470 24 494 20 24 40 8 67
-51 13 -30 33 -65 45 -77 23 -24 62 -126 48 -126 -15 0 -10 -52 10 -95 l18
-40 -5 57 c-3 36 0 63 7 72 9 11 9 74 1 258 -12 302 -12 306 7 248 11 -32 15
-90 15 -200 0 -122 2 -141 8 -90 4 36 19 112 34 170 38 153 53 384 37 599 -6
91 -16 182 -21 201 -11 39 -8 -8 10 -215 10 -106 4 -282 -10 -335 -7 -26 -19
124 -26 331 -5 170 -22 239 -72 293 -22 24 -47 57 -56 74 -50 97 -82 306 -51
332 27 22 10 167 -20 177 -6 2 -16 -6 -23 -17z m-642 -770 c12 -6 21 -26 26
-56 8 -54 -11 -222 -32 -281 -15 -42 -34 -58 -34 -28 0 8 -4 15 -10 15 -5 0
-10 9 -10 19 0 24 -18 38 -24 19 -29 -99 -48 -155 -55 -167 -16 -25 -31 -1
-29 47 0 26 -2 88 -5 137 -6 85 -9 208 -8 248 2 39 133 73 181 47z m657 -16
c35 -26 37 -49 28 -291 -6 -144 -10 -183 -21 -183 -17 0 -64 80 -64 108 0 12
-5 22 -11 22 -7 0 -9 -11 -6 -27 7 -37 -9 -68 -26 -51 -39 39 -98 313 -82 372
22 78 23 78 92 74 43 -3 71 -10 90 -24z m-676 -1231 c-1 -38 3 -128 9 -202 7
-80 8 -137 2 -143 -8 -8 -13 42 -36 331 -4 45 9 99 21 87 3 -3 5 -36 4 -73z
m575 42 c5 -31 -1 -130 -23 -347 -3 -27 -10 -48 -15 -48 -8 0 -9 27 -3 83 5
61 15 279 15 343 0 2 4 4 10 4 5 0 12 -16 16 -35z m-769 -677 c-2 -7 0 -20 4
-30 5 -9 11 -128 14 -265 3 -136 10 -314 16 -395 11 -162 5 -192 -34 -186 -20
3 -22 10 -25 73 -2 39 1 95 7 125 15 78 16 377 1 495 -6 55 -13 109 -14 120
-3 27 14 75 26 75 5 0 8 -6 5 -12z m948 -175 c-10 -198 -8 -461 4 -513 15 -63
14 -175 -1 -188 -8 -6 -22 -6 -37 -1 -24 9 -24 10 -16 107 4 53 9 222 10 374
3 285 8 343 28 331 6 -4 8 0 4 10 -4 10 -2 17 5 17 8 0 9 -39 3 -137z m-858
-490 c-3 -10 -5 -2 -5 17 0 19 2 27 5 18 2 -10 2 -26 0 -35z m760 5 c-3 -8 -6
-5 -6 6 -1 11 2 17 5 13 3 -3 4 -12 1 -19z m28 -104 c-3 -29 -13 -60 -21 -70
-15 -18 -15 -18 -10 6 3 14 11 61 18 105 10 61 14 72 16 45 2 -19 1 -58 -3
-86z m-796 -23 c6 -30 9 -56 6 -59 -7 -7 -21 36 -29 88 -10 63 9 39 23 -29z"/>
<path d="M951 3364 c0 -11 3 -14 6 -6 3 7 2 16 -1 19 -3 4 -6 -2 -5 -13z"/>
<path d="M925 3240 c-10 -50 -16 -93 -13 -96 3 -2 13 36 23 86 10 50 16 93 13
95 -2 3 -12 -36 -23 -85z"/>
<path d="M2880 3243 c0 -11 7 -28 15 -39 14 -18 15 -17 13 15 -3 36 -28 57
-28 24z"/>
<path d="M902 3110 c0 -14 2 -19 5 -12 2 6 2 18 0 25 -3 6 -5 1 -5 -13z"/>
<path d="M2142 3105 c0 -16 2 -22 5 -12 2 9 2 23 0 30 -3 6 -5 -1 -5 -18z"/>
<path d="M882 2997 c-6 -43 -11 -97 -11 -120 1 -29 6 -13 15 53 8 52 13 106
12 120 -2 14 -9 -10 -16 -53z"/>
<path d="M933 1850 c0 -36 2 -50 4 -32 2 17 2 47 0 65 -2 17 -4 3 -4 -33z"/>
<path d="M2113 1850 c0 -30 2 -43 4 -27 2 15 2 39 0 55 -2 15 -4 2 -4 -28z"/>
<path d="M901 1654 c0 -11 3 -14 6 -6 3 7 2 16 -1 19 -3 4 -6 -2 -5 -13z"/>
<path d="M2141 1654 c0 -11 3 -14 6 -6 3 7 2 16 -1 19 -3 4 -6 -2 -5 -13z"/>
<path d="M891 1614 c0 -11 3 -14 6 -6 3 7 2 16 -1 19 -3 4 -6 -2 -5 -13z"/>
<path d="M2152 1615 c0 -11 3 -29 8 -40 11 -25 11 1 0 35 -6 20 -8 21 -8 5z"/>
<path d="M881 1574 c0 -11 3 -14 6 -6 3 7 2 16 -1 19 -3 4 -6 -2 -5 -13z"/>
<path d="M818 236 c-47 -28 -55 -36 -37 -36 8 0 30 13 49 30 41 35 38 36 -12
6z"/>
</g>
</svg>
