<svg version="1.0" xmlns="http://www.w3.org/2000/svg"
 width="304.000000pt" height="637.000000pt" viewBox="0 0 304.000000 637.000000"
 preserveAspectRatio="xMidYMid meet">

<g transform="translate(0.000000,637.000000) scale(0.100000,-0.100000)"
fill="#000000" stroke="none">
<path d="M1434 6290 c-43 -14 -121 -85 -146 -134 -15 -30 -22 -66 -26 -134 -4
-77 -8 -94 -23 -103 -15 -7 -19 -21 -19 -60 0 -60 18 -105 55 -139 l28 -25 -7
45 c-15 98 -23 258 -15 319 7 61 30 110 57 119 18 6 16 -171 -2 -206 -12 -23
-13 -49 -5 -142 5 -63 13 -128 18 -145 l9 -30 1 33 c1 44 19 41 26 -5 3 -21
10 -53 16 -71 14 -45 4 -52 -18 -13 -18 32 -33 40 -33 19 0 -16 -14 -1 -35 37
l-17 30 6 -34 c3 -18 6 -66 7 -105 0 -49 3 -65 9 -51 5 11 6 35 3 54 -4 26 -3
33 8 29 11 -4 14 -26 13 -94 -1 -98 -9 -148 -24 -139 -6 3 -10 31 -10 61 l0
55 -30 -35 c-35 -39 -275 -166 -315 -166 -40 0 -136 -40 -189 -78 -96 -70
-144 -188 -155 -382 -5 -79 -12 -123 -23 -140 -9 -14 -19 -36 -23 -50 -3 -14
8 1 24 33 26 48 31 68 31 128 0 128 43 280 98 342 19 21 27 15 13 -10 -6 -10
-27 -62 -46 -116 -32 -89 -36 -112 -42 -245 -7 -158 -11 -173 -93 -322 -59
-107 -62 -113 -69 -101 -7 11 -67 -72 -104 -146 -18 -35 -23 -58 -7 -33 16 25
12 -5 -9 -57 -10 -26 -28 -91 -41 -143 -12 -52 -31 -130 -41 -172 -21 -86 -23
-107 -11 -92 19 20 53 137 86 292 35 161 58 222 111 287 l24 30 22 -22 c13
-12 32 -42 43 -65 15 -30 30 -46 51 -53 17 -5 31 -10 33 -11 11 -6 -53 -178
-78 -209 -35 -44 -73 -75 -93 -75 -8 0 -30 -33 -51 -76 -34 -69 -36 -77 -21
-88 15 -11 12 -17 -28 -57 -77 -78 -119 -238 -74 -283 15 -15 16 -34 11 -159
-4 -78 -10 -146 -15 -151 -4 -5 -14 -6 -22 -3 -11 4 -16 28 -18 91 -3 72 -7
89 -26 108 -18 17 -23 19 -27 7 -3 -8 -13 -34 -21 -59 -42 -117 -47 -212 -15
-275 22 -42 26 -70 10 -60 -21 13 -68 122 -73 170 -2 28 -1 73 3 100 9 55 4
76 -6 27 -4 -18 -10 -29 -15 -26 -4 2 -4 16 1 30 18 47 9 60 -9 14 -16 -38
-18 -60 -12 -145 8 -105 32 -173 87 -240 20 -25 27 -28 41 -19 10 6 20 28 23
50 3 21 9 45 13 51 5 7 -3 45 -17 83 -32 89 -32 112 -1 147 l24 28 1 -33 c0
-64 39 -94 71 -55 15 17 18 60 23 258 3 142 9 158 133 330 157 219 228 352
257 485 21 97 172 408 199 409 9 1 17 -6 17 -14 0 -9 16 -61 35 -117 52 -150
68 -227 61 -306 -3 -37 -9 -129 -12 -205 -5 -123 -4 -136 10 -131 13 5 16 -1
16 -31 0 -20 -6 -57 -14 -83 -7 -26 -24 -132 -36 -237 -12 -104 -31 -239 -41
-300 -33 -189 -59 -415 -60 -525 -1 -83 -3 -97 -10 -65 -12 59 -11 417 2 494
6 36 24 137 41 223 16 87 28 163 25 170 -2 7 -7 -7 -11 -32 -4 -25 -18 -99
-31 -165 -44 -216 -55 -319 -55 -495 0 -189 18 -341 57 -488 24 -91 25 -106
19 -259 -4 -90 -9 -177 -11 -195 -5 -30 -5 -31 5 -9 6 13 15 65 20 115 15 139
37 214 55 186 10 -17 -13 -238 -30 -280 -16 -40 -59 -248 -74 -358 -11 -82
-20 -104 -22 -51 -1 19 -3 44 -4 55 -3 29 20 186 35 247 7 26 10 50 7 53 -8 8
-47 -172 -57 -260 -10 -97 -1 -209 39 -486 40 -271 48 -402 31 -500 -7 -41
-16 -81 -20 -90 -4 -8 -16 -33 -26 -55 -10 -22 -45 -66 -77 -98 -33 -32 -56
-61 -53 -64 3 -3 14 0 23 8 16 13 17 12 4 -4 -7 -9 -21 -16 -30 -15 -18 3 -29
-48 -13 -64 5 -5 62 -14 126 -20 112 -9 118 -9 158 14 23 13 48 34 54 47 7 13
26 30 43 37 43 18 55 55 41 124 -8 41 -9 68 0 104 8 37 8 74 0 140 -11 82 -9
107 14 251 14 88 37 205 52 260 61 231 67 293 46 495 -14 135 -15 128 38 330
11 41 29 147 40 235 26 201 43 294 85 465 32 125 61 320 67 445 3 43 6 50 26
53 12 2 24 -3 26 -10 3 -7 10 -81 15 -163 9 -124 48 -355 65 -383 12 -20 48
-230 61 -354 20 -188 30 -242 67 -368 l31 -105 -13 -167 c-15 -197 -9 -275 31
-406 16 -53 42 -162 56 -242 24 -132 26 -169 27 -415 l1 -270 36 -19 c19 -11
43 -32 52 -47 26 -47 73 -60 195 -53 176 9 192 38 83 145 -154 151 -174 286
-108 749 20 135 38 286 42 335 7 102 -10 237 -49 404 -18 72 -27 149 -32 250
-6 141 -5 150 25 266 16 66 35 174 42 240 16 164 6 456 -20 610 -26 147 -31
169 -36 163 -3 -3 6 -72 20 -154 21 -122 26 -183 26 -339 1 -250 -16 -301 -24
-74 -3 90 -12 202 -20 249 -27 155 -106 714 -114 805 -3 33 -1 45 5 36 17 -25
20 119 5 249 -18 149 -11 210 42 351 19 51 38 108 41 126 12 66 30 60 67 -20
19 -41 50 -102 70 -135 20 -34 48 -98 62 -144 15 -46 36 -112 47 -148 35 -110
69 -166 271 -456 31 -44 66 -105 77 -135 20 -49 21 -60 11 -119 -7 -44 -8 -78
-1 -105 5 -22 10 -67 10 -101 0 -46 4 -65 18 -77 37 -34 72 -14 72 40 0 35 10
42 29 20 24 -29 23 -72 -4 -142 -22 -59 -25 -75 -16 -105 6 -19 12 -44 13 -54
2 -10 11 -24 20 -30 23 -14 47 9 89 87 31 58 34 70 37 173 4 101 1 119 -23
190 -25 74 -44 117 -45 103 0 -4 11 -41 25 -84 20 -60 23 -80 14 -91 -8 -10
-9 -38 -5 -89 4 -45 3 -75 -3 -75 -5 0 -17 -22 -26 -49 -9 -27 -25 -57 -35
-66 -24 -22 -26 -8 -4 43 8 20 18 69 21 109 5 58 1 85 -17 142 -12 39 -28 78
-35 87 -11 16 -14 15 -31 -11 -13 -20 -20 -52 -22 -104 -4 -82 -10 -95 -35
-86 -15 6 -21 58 -27 235 -2 45 12 101 26 107 23 8 16 58 -21 156 -54 145
-136 294 -155 282 -11 -7 -75 64 -110 123 -31 52 -74 187 -64 204 3 4 15 6 27
3 32 -7 42 3 70 70 30 71 50 77 84 25 12 -19 28 -41 34 -48 17 -20 46 -122 75
-266 14 -71 42 -172 61 -225 19 -53 43 -121 53 -151 22 -67 24 -56 5 25 -16
67 -19 102 -5 70 l9 -20 0 20 c0 11 -4 27 -9 35 -8 13 -10 13 -10 1 0 -29 -18
4 -24 44 l-6 40 15 -35 c18 -41 15 -23 -11 87 -11 47 -21 70 -29 67 -8 -3 -15
10 -19 36 -8 52 -44 167 -62 202 -17 31 -18 42 -4 33 6 -3 10 -2 10 2 0 7 -63
112 -107 180 -12 17 -12 17 -6 -2 6 -20 6 -20 -15 -1 -12 10 -29 41 -38 70
-29 86 -66 157 -80 152 -13 -5 -24 14 -24 42 0 15 2 15 11 2 8 -12 9 -9 4 10
-3 14 -10 79 -15 145 -8 131 -15 163 -59 275 -30 77 -82 150 -106 150 -8 0
-17 5 -21 11 -4 7 0 9 14 5 35 -11 109 -88 137 -141 19 -36 25 -42 20 -21 -8
39 -57 108 -102 145 -41 34 -117 66 -197 83 -90 19 -312 144 -337 189 -8 15
-10 60 -7 138 2 64 2 105 -1 91 -3 -14 -13 -35 -21 -46 -17 -23 -59 -49 -67
-40 -8 8 29 96 38 90 4 -2 6 -12 3 -22 -2 -9 0 -8 5 3 29 64 40 277 16 312
-10 14 -14 45 -14 94 0 41 -3 87 -6 103 -7 27 -7 28 15 16 31 -17 62 -93 65
-164 3 -64 -8 -214 -20 -281 l-8 -39 24 15 c55 36 82 171 41 201 -15 10 -20
31 -25 104 -8 126 -42 187 -142 249 -34 21 -161 30 -211 15z m143 -32 c15 -7
40 -24 55 -40 23 -24 26 -35 27 -102 0 -41 2 -81 3 -88 6 -25 -221 -29 -261
-4 -6 4 -6 18 0 39 5 17 7 49 3 69 -3 21 -1 53 5 71 19 56 102 83 168 55z
m-37 -352 c0 -64 -6 -81 -26 -68 -17 11 -5 132 12 132 11 0 14 -16 14 -64z
m-105 44 c4 -6 -5 -10 -20 -10 -15 0 -24 4 -20 10 3 6 12 10 20 10 8 0 17 -4
20 -10z m223 -7 c2 -8 -6 -13 -22 -13 -25 0 -33 10 -19 24 10 10 36 3 41 -11z
m-191 -26 c-3 -8 -8 -38 -12 -68 -8 -65 0 -76 63 -81 44 -3 55 -16 28 -33 -24
-15 -98 16 -116 49 -8 15 -32 46 -52 68 -41 45 -41 58 0 58 15 0 34 5 42 10
23 15 53 12 47 -3z m224 -13 c18 -11 8 -35 -29 -77 -21 -23 -42 -50 -45 -59
-7 -20 -32 -24 -42 -8 -3 6 1 17 9 25 16 16 14 48 -5 109 l-9 29 56 -7 c31 -4
61 -9 65 -12z m-126 -214 c-28 -12 -83 -12 -90 0 -4 6 16 10 52 9 42 0 52 -3
38 -9z m5 -58 c33 -26 17 -42 -41 -42 -56 0 -77 22 -44 46 26 19 59 17 85 -4z
m161 -110 c0 -26 4 -68 8 -93 4 -25 4 -54 1 -65 -7 -18 -7 -17 -18 3 -15 27
-16 217 -2 208 6 -3 10 -27 11 -53z m-472 -206 c-11 -65 -12 -66 -43 -67 -57
-2 -101 3 -120 13 -25 13 -12 25 84 74 41 22 77 43 79 47 10 24 11 -9 0 -67z
m204 10 c50 -70 72 -71 124 -5 21 26 42 48 46 49 5 0 7 -27 6 -60 -3 -66 2
-78 21 -55 14 17 66 20 76 4 10 -17 -10 -30 -55 -36 -23 -3 -41 -11 -41 -18 0
-10 28 -12 124 -8 122 6 125 5 120 -14 -5 -16 5 -28 40 -53 66 -44 78 -33 24
23 -42 44 -44 49 -26 58 34 18 116 22 178 8 46 -10 72 -23 110 -57 28 -24 49
-49 47 -56 -2 -6 4 -36 14 -68 13 -45 14 -61 5 -80 -14 -27 -49 -27 -81 1 -29
25 -71 41 -106 41 -33 0 -79 -41 -79 -70 0 -15 -50 -134 -81 -192 -5 -10 -9
-24 -9 -32 0 -18 -146 -41 -219 -34 -58 6 -100 37 -122 90 -9 21 -14 26 -20
16 -14 -21 -10 -92 5 -114 8 -11 59 -40 113 -64 54 -24 102 -47 107 -51 6 -5
5 -24 -3 -48 -13 -44 -31 -54 -98 -53 -24 0 -43 -2 -43 -4 0 -2 16 -12 37 -21
20 -10 45 -30 56 -44 24 -33 13 -54 -47 -93 -51 -33 -68 -33 -109 3 -30 27
-34 28 -45 13 -10 -13 -14 -14 -18 -4 -4 9 -15 6 -40 -13 -42 -32 -89 -27
-127 13 -35 38 -43 69 -22 93 27 28 119 60 156 52 25 -5 31 -3 27 8 -3 9 -15
12 -34 9 -16 -2 -60 -5 -98 -5 -62 0 -70 2 -87 25 -40 57 -37 61 72 109 115
51 149 83 149 139 0 48 -15 73 -23 40 -9 -35 -62 -85 -98 -92 -50 -10 -153 -7
-190 5 -50 17 -61 30 -112 132 -55 111 -63 131 -66 166 -2 35 -37 34 -124 -4
-114 -51 -115 -51 -122 -23 -12 46 38 195 74 220 11 8 19 17 16 19 -2 3 4 5
13 6 9 1 52 10 94 19 69 16 83 16 120 4 51 -16 318 -26 318 -11 0 5 -18 12
-40 16 -47 8 -58 21 -37 42 11 12 19 12 35 4 39 -21 45 -15 39 43 -8 84 3 87
56 12z m450 -13 c31 -19 57 -38 57 -43 0 -24 -144 -30 -168 -6 -9 9 -11 26 -6
55 6 40 8 42 33 36 14 -4 52 -22 84 -42z m-1076 -129 c-3 -3 -12 -4 -19 -1 -8
3 -5 6 6 6 11 1 17 -2 13 -5z m152 -383 c23 -54 27 -86 10 -75 -14 8 -48 84
-49 107 0 32 17 17 39 -32z m1106 17 c-4 -13 -16 -36 -26 -53 -24 -39 -26 -10
-2 40 19 39 38 48 28 13z m-1241 -69 c-1 -20 -18 -81 -39 -135 -78 -203 -155
-334 -197 -334 -19 0 -20 4 -14 43 13 81 115 367 153 425 16 26 48 42 78 39
16 -2 20 -9 19 -38z m1410 26 c28 -14 38 -31 86 -153 95 -244 116 -326 86
-338 -15 -6 -65 24 -66 39 0 4 -9 20 -20 35 -26 35 -148 344 -156 394 -6 34
-4 38 16 38 12 0 36 -7 54 -15z m-611 -596 c21 -6 41 -17 44 -25 16 -42 -51
-154 -91 -154 -8 0 -25 10 -36 22 -17 18 -23 20 -29 9 -6 -8 -16 -11 -26 -7
-11 4 -25 0 -36 -10 -37 -33 -101 24 -113 102 -5 36 -3 42 18 54 13 7 50 18
83 24 57 12 93 9 186 -15z m-586 -131 c-2 -13 -4 -3 -4 22 0 25 2 35 4 23 2
-13 2 -33 0 -45z m171 -68 c10 -23 14 -63 13 -115 0 -44 3 -107 9 -139 10 -60
6 -85 -7 -50 -3 10 -24 44 -45 74 -57 83 -71 185 -36 273 10 27 11 27 31 10
11 -10 27 -34 35 -53z m-186 -90 c-3 -70 -8 -107 -13 -95 -11 30 -10 94 2 159
7 31 13 55 14 54 2 -2 1 -55 -3 -118z m839 85 c26 -45 24 -111 -7 -172 -31
-60 -79 -121 -89 -112 -11 11 16 262 32 292 18 35 40 32 64 -8z m-276 -30 c98
-7 130 -38 90 -91 -8 -10 -15 -26 -15 -35 0 -30 -59 -99 -84 -99 -13 0 -29 -7
-36 -15 -17 -21 -63 -19 -108 4 -50 26 -64 44 -102 130 -30 69 -31 75 -15 87
9 7 47 16 83 19 37 4 72 8 77 10 6 2 21 1 35 -2 14 -3 48 -7 75 -8z m402 -92
c-2 -21 -4 -6 -4 32 0 39 2 55 4 38 2 -18 2 -50 0 -70z m740 -25 c-3 -8 -6 -5
-6 6 -1 11 2 17 5 13 3 -3 4 -12 1 -19z m10 -50 c-3 -7 -5 -2 -5 12 0 14 2 19
5 13 2 -7 2 -19 0 -25z m-823 -204 c3 -26 6 -71 6 -100 0 -29 4 -64 10 -78 55
-145 52 -612 -4 -740 -14 -31 -27 -56 -30 -56 -12 0 -35 71 -45 142 -29 183
-51 272 -76 298 -33 35 -76 142 -76 193 -1 83 152 387 195 387 8 0 16 -18 20
-46z m-763 -6 c44 -61 117 -213 133 -278 16 -66 6 -114 -48 -223 -19 -40 -40
-97 -46 -127 -7 -30 -17 -68 -22 -85 -5 -16 -16 -64 -24 -105 -18 -84 -38
-140 -52 -140 -19 0 -53 139 -67 276 -11 104 -12 163 -5 225 6 46 10 112 10
146 0 44 8 82 27 130 21 52 27 83 25 133 -1 36 0 71 3 78 9 24 35 12 66 -30z
m413 -178 c37 -36 -10 -140 -63 -140 -58 0 -95 47 -89 111 3 29 8 35 43 46 47
14 83 9 109 -17z m-403 -1060 c-9 -22 -10 -20 -10 21 -1 25 2 49 7 53 11 12
14 -47 3 -74z m-57 -312 c25 -44 15 -71 -27 -76 -19 -2 -30 4 -43 23 -16 25
-16 28 0 61 20 44 41 42 70 -8z m854 9 c11 -23 11 -34 2 -57 -14 -35 -34 -44
-61 -27 -31 19 -34 52 -9 87 26 37 50 36 68 -3z m76 -19 c9 -34 7 -88 -3 -88
-8 0 -21 55 -21 93 0 25 17 21 24 -5z m23 -155 c41 -99 118 -543 84 -483 -11
18 -81 370 -81 405 0 16 -6 25 -15 25 -11 0 -15 11 -15 40 0 47 10 51 27 13z
m-1040 -333 c16 0 22 -37 13 -72 -5 -16 -12 -76 -15 -132 -7 -106 -13 -151
-21 -144 -6 7 -34 245 -34 300 0 25 3 54 6 63 6 14 8 14 24 0 9 -8 21 -15 27
-15z m1012 -42 c-1 -135 -17 -360 -26 -369 -6 -6 -14 54 -23 163 -7 95 -15
194 -17 221 l-5 47 36 0 36 0 -1 -62z m-18 -761 c3 -117 10 -224 14 -239 9
-34 25 -36 33 -6 5 21 6 21 13 2 4 -10 8 -30 8 -44 1 -31 41 -117 81 -177 17
-24 30 -45 30 -47 0 -10 -96 18 -103 30 -4 7 -14 11 -21 8 -21 -8 -56 14 -56
36 0 10 -5 22 -10 25 -12 8 -5 -80 12 -132 8 -26 15 -33 36 -33 30 -1 62 -21
62 -39 0 -16 -35 -14 -50 4 -9 11 -16 12 -26 4 -10 -8 -21 -2 -49 25 -19 19
-35 44 -35 54 0 11 -11 45 -25 76 -31 71 -33 122 -5 131 12 4 28 1 37 -7 15
-12 15 -11 3 11 -13 25 -12 81 9 321 15 172 22 222 29 215 4 -4 10 -102 13
-218z m-997 142 c3 -17 6 -58 6 -90 0 -32 7 -109 16 -171 9 -62 14 -132 11
-155 -4 -39 -3 -43 18 -43 13 0 25 -6 28 -14 8 -19 -7 -77 -32 -129 -11 -24
-21 -53 -21 -66 0 -20 -13 -35 -71 -84 -11 -10 -32 -15 -54 -13 -40 4 -47 16
-17 31 11 6 26 16 34 23 8 6 17 9 21 6 3 -3 14 3 25 14 14 14 19 33 19 82 0
55 -2 60 -14 44 -7 -10 -13 -24 -13 -32 0 -18 -26 -43 -42 -40 -8 2 -14 -8
-16 -25 -2 -19 -16 -37 -41 -55 -21 -15 -36 -33 -33 -40 2 -6 -3 -12 -12 -12
-38 0 -7 52 53 90 12 7 12 11 -2 24 -12 13 -18 14 -29 3 -11 -10 -58 -19 -58
-10 0 1 15 22 33 46 42 55 73 127 88 205 11 61 29 84 29 40 0 -13 4 -30 9 -37
8 -12 11 -10 15 10 13 55 26 211 26 317 0 108 11 145 24 81z m879 -354 c-5
-43 -8 -46 -16 -27 -7 15 -6 31 3 52 17 41 21 33 13 -25z m-786 -17 c-3 -7 -5
-2 -5 12 0 14 2 19 5 13 2 -7 2 -19 0 -25z m971 -297 c3 -16 -1 -22 -10 -19
-7 3 -15 15 -16 27 -3 16 1 22 10 19 7 -3 15 -15 16 -27z m71 -33 c17 -18 31
-43 31 -55 0 -32 -15 -28 -30 7 -7 16 -18 35 -26 41 -13 11 -20 39 -10 39 3 0
19 -15 35 -32z m126 -27 c10 -25 -6 -27 -26 -2 -10 13 -19 27 -19 32 0 13 38
-13 45 -30z m-1475 20 c0 -20 -20 -61 -30 -61 -13 0 -13 12 0 44 9 25 30 36
30 17z m1436 -34 c3 -11 1 -24 -4 -29 -7 -7 -12 -3 -17 11 -3 12 -11 21 -16
21 -5 0 -9 9 -9 20 0 18 2 19 20 8 11 -7 23 -21 26 -31z"/>
<path d="M1485 5213 c-4 -18 -11 -33 -16 -33 -5 0 -4 -9 3 -20 16 -25 98 -27
98 -1 0 9 3 26 6 39 8 30 -12 28 -28 -3 -15 -29 -31 -22 -46 20 l-10 30 -7
-32z"/>
<path d="M1097 5139 c-15 -23 -26 -43 -25 -45 7 -6 93 58 93 69 0 7 -9 13 -20
15 -15 2 -29 -9 -48 -39z"/>
<path d="M1540 4455 c-11 -13 -8 -15 18 -15 34 0 50 15 26 24 -23 9 -30 8 -44
-9z"/>
<path d="M1513 3933 c-26 -10 -13 -32 17 -31 23 1 30 5 28 17 -3 17 -24 23
-45 14z"/>
<path d="M937 286 c-3 -8 0 -19 6 -24 9 -8 12 -4 13 14 2 26 -11 33 -19 10z"/>
<path d="M2391 4995 c1 -19 18 -51 18 -35 0 8 -4 22 -9 30 -5 8 -9 11 -9 5z"/>
<path d="M2413 4905 c0 -22 2 -30 4 -17 2 12 2 30 0 40 -3 9 -5 -1 -4 -23z"/>
<path d="M2422 4795 c0 -16 2 -22 5 -12 2 9 2 23 0 30 -3 6 -5 -1 -5 -18z"/>
<path d="M2421 4725 c0 -16 8 -43 19 -60 22 -33 27 -27 8 8 -6 12 -15 36 -19
52 l-7 30 -1 -30z"/>
<path d="M541 4514 c0 -11 3 -14 6 -6 3 7 2 16 -1 19 -3 4 -6 -2 -5 -13z"/>
<path d="M531 4483 c-1 -6 -4 -20 -7 -30 -5 -17 -5 -17 6 0 6 10 9 23 6 30 -3
9 -5 9 -5 0z"/>
<path d="M506 4404 c-4 -14 -5 -28 -3 -31 3 -2 8 8 11 23 4 14 5 28 3 31 -3 2
-8 -8 -11 -23z"/>
<path d="M331 4044 c0 -11 3 -14 6 -6 3 7 2 16 -1 19 -3 4 -6 -2 -5 -13z"/>
<path d="M317 4003 c-4 -3 -7 -11 -7 -17 0 -6 5 -5 12 2 6 6 9 14 7 17 -3 3
-9 2 -12 -2z"/>
<path d="M2731 3974 c0 -11 3 -14 6 -6 3 7 2 16 -1 19 -3 4 -6 -2 -5 -13z"/>
<path d="M302 3940 c0 -14 2 -19 5 -12 2 6 2 18 0 25 -3 6 -5 1 -5 -13z"/>
<path d="M2742 3920 c0 -14 2 -19 5 -12 2 6 2 18 0 25 -3 6 -5 1 -5 -13z"/>
<path d="M291 3884 c0 -11 3 -14 6 -6 3 7 2 16 -1 19 -3 4 -6 -2 -5 -13z"/>
<path d="M261 3774 c0 -11 3 -14 6 -6 3 7 2 16 -1 19 -3 4 -6 -2 -5 -13z"/>
<path d="M241 3726 c-6 -16 -10 -34 -8 -40 3 -6 10 2 16 18 6 16 10 34 8 40
-3 6 -10 -2 -16 -18z"/>
<path d="M1011 3694 c0 -11 3 -14 6 -6 3 7 2 16 -1 19 -3 4 -6 -2 -5 -13z"/>
<path d="M2044 3650 c3 -14 17 -101 32 -195 15 -93 30 -173 34 -178 14 -15
-46 357 -62 383 -7 11 -8 8 -4 -10z"/>
<path d="M222 3640 c0 -14 2 -19 5 -12 2 6 2 18 0 25 -3 6 -5 1 -5 -13z"/>
<path d="M257 3633 c-8 -13 -37 -116 -36 -127 0 -6 11 20 25 58 13 38 22 71
20 73 -2 3 -6 1 -9 -4z"/>
<path d="M987 3620 c-4 -14 -6 -41 -6 -60 1 -34 2 -33 10 10 10 51 7 89 -4 50z"/>
<path d="M2821 3604 c0 -11 3 -14 6 -6 3 7 2 16 -1 19 -3 4 -6 -2 -5 -13z"/>
<path d="M207 3591 c-4 -17 -3 -21 5 -13 5 5 8 16 6 23 -3 8 -7 3 -11 -10z"/>
<path d="M195 3549 c-4 -6 -5 -12 -2 -15 2 -3 7 2 10 11 7 17 1 20 -8 4z"/>
<path d="M2841 3545 c1 -19 18 -51 18 -35 0 8 -4 22 -9 30 -5 8 -9 11 -9 5z"/>
<path d="M972 3490 c0 -19 2 -27 5 -17 2 9 2 25 0 35 -3 9 -5 1 -5 -18z"/>
<path d="M181 3494 c0 -11 3 -14 6 -6 3 7 2 16 -1 19 -3 4 -6 -2 -5 -13z"/>
<path d="M171 3454 c0 -11 3 -14 6 -6 3 7 2 16 -1 19 -3 4 -6 -2 -5 -13z"/>
<path d="M2841 3444 c1 -16 5 -40 9 -54 6 -17 7 -9 3 25 -6 56 -14 74 -12 29z"/>
<path d="M962 3425 c0 -16 2 -22 5 -12 2 9 2 23 0 30 -3 6 -5 -1 -5 -18z"/>
<path d="M185 3384 c-8 -53 0 -71 10 -22 3 18 9 41 11 51 3 9 1 17 -4 17 -5 0
-13 -21 -17 -46z"/>
<path d="M151 3394 c0 -11 3 -14 6 -6 3 7 2 16 -1 19 -3 4 -6 -2 -5 -13z"/>
<path d="M2891 3374 c0 -11 3 -14 6 -6 3 7 2 16 -1 19 -3 4 -6 -2 -5 -13z"/>
<path d="M141 3358 c0 -9 -4 -25 -7 -35 -5 -17 -5 -17 6 0 6 10 9 25 7 35 -4
15 -5 15 -6 0z"/>
<path d="M109 3253 c-5 -14 -8 -30 -6 -36 1 -5 8 7 14 27 13 42 7 49 -8 9z"/>
<path d="M157 3273 c-4 -3 -7 -11 -7 -17 0 -6 5 -5 12 2 6 6 9 14 7 17 -3 3
-9 2 -12 -2z"/>
<path d="M2890 3255 c0 -5 5 -17 10 -25 5 -8 10 -10 10 -5 0 6 -5 17 -10 25
-5 8 -10 11 -10 5z"/>
</g>
</svg>
